HIERARCHY
ROOT Hips
{
	OFFSET 0.000000 0.000000 0.000000
	CHANNELS 6 Xposition Yposition Zposition Zrotation Yrotation Xrotation 
	JOINT LHipJoint
	{
		OFFSET 0.000000 0.000000 0.000000
		CHANNELS 3 Zrotation Yrotation Xrotation
		JOINT LeftUpLeg
		{
			OFFSET 1.363060 -1.794630 0.839290
			CHANNELS 3 Zrotation Yrotation Xrotation
			JOINT LeftLeg
			{
				OFFSET 2.448110 -6.726130 0.000000
				CHANNELS 3 Zrotation Yrotation Xrotation
				JOINT LeftFoot
				{
					OFFSET 2.562200 -7.039590 0.000000
					CHANNELS 3 Zrotation Yrotation Xrotation
					JOINT LeftToeBase
					{
						OFFSET 0.157640 -0.433110 2.322550
						CHANNELS 3 Zrotation Yrotation Xrotation
						End Site
						{
							OFFSET 0.000000 0.000000 0.000000
						}
					}
				}
			}
		}
	}
	JOINT RHipJoint
	{
		OFFSET 0.000000 0.000000 0.000000
		CHANNELS 3 Zrotation Yrotation Xrotation
		JOINT RightUpLeg
		{
			OFFSET -1.305520 -1.794630 0.839290
			CHANNELS 3 Zrotation Yrotation Xrotation
			JOINT RightLeg
			{
				OFFSET -2.542530 -6.985550 0.000000
				CHANNELS 3 Zrotation Yrotation Xrotation
				JOINT RightFoot
				{
					OFFSET -2.568260 -7.056230 0.000000
					CHANNELS 3 Zrotation Yrotation Xrotation
					JOINT RightToeBase
					{
						OFFSET -0.164730 -0.452590 2.363150
						CHANNELS 3 Zrotation Yrotation Xrotation
						End Site
						{
							OFFSET 0.000000 0.000000 0.000000
						}
					}
				}
			}
		}
	}
	JOINT LowerBack
	{
		OFFSET 0.000000 0.000000 0.000000
		CHANNELS 3 Zrotation Yrotation Xrotation
		JOINT Spine
		{
			OFFSET 0.028270 2.035590 -0.193380
			CHANNELS 3 Zrotation Yrotation Xrotation
			JOINT Spine1
			{
				OFFSET 0.056720 2.048850 -0.042750
				CHANNELS 3 Zrotation Yrotation Xrotation
				JOINT Neck
				{
					OFFSET 0.000000 0.000000 0.000000
					CHANNELS 3 Zrotation Yrotation Xrotation
					JOINT Neck1
					{
						OFFSET -0.054170 1.746240 0.172020
						CHANNELS 3 Zrotation Yrotation Xrotation
						JOINT Head
						{
							OFFSET 0.104070 1.761360 -0.123970
							CHANNELS 3 Zrotation Yrotation Xrotation
							End Site
							{
								OFFSET 0.000000 0.000000 0.000000
							}
						}
					}
				}
				JOINT LeftShoulder
				{
					OFFSET 0.000000 0.000000 0.000000
					CHANNELS 3 Zrotation Yrotation Xrotation
					JOINT LeftArm
					{
						OFFSET 3.362410 1.200890 -0.311210
						CHANNELS 3 Zrotation Yrotation Xrotation
						JOINT LeftForeArm
						{
							OFFSET 4.983000 -0.000000 -0.000000
							CHANNELS 3 Zrotation Yrotation Xrotation
							JOINT LeftHand
							{
								OFFSET 3.483560 -0.000000 -0.000000
								CHANNELS 3 Zrotation Yrotation Xrotation
								JOINT LeftFingerBase
								{
									OFFSET 0.000000 0.000000 0.000000
									CHANNELS 3 Zrotation Yrotation Xrotation
									JOINT LeftHandIndex1
									{
										OFFSET 0.715260 -0.000000 -0.000000
										CHANNELS 3 Zrotation Yrotation Xrotation
										End Site
										{
											OFFSET 0.000000 0.000000 0.000000
										}
									}
								}
								JOINT LThumb
								{
									OFFSET 0.000000 0.000000 0.000000
									CHANNELS 3 Zrotation Yrotation Xrotation
									End Site
									{
										OFFSET 0.000000 0.000000 0.000000
									}
								}
							}
						}
					}
				}
				JOINT RightShoulder
				{
					OFFSET 0.000000 0.000000 0.000000
					CHANNELS 3 Zrotation Yrotation Xrotation
					JOINT RightArm
					{
						OFFSET -3.136600 1.374050 -0.404650
						CHANNELS 3 Zrotation Yrotation Xrotation
						JOINT RightForeArm
						{
							OFFSET -5.241900 -0.000000 -0.000000
							CHANNELS 3 Zrotation Yrotation Xrotation
							JOINT RightHand
							{
								OFFSET -3.444170 -0.000000 -0.000000
								CHANNELS 3 Zrotation Yrotation Xrotation
								JOINT RightFingerBase
								{
									OFFSET 0.000000 0.000000 0.000000
									CHANNELS 3 Zrotation Yrotation Xrotation
									JOINT RightHandIndex1
									{
										OFFSET -0.622530 -0.000000 -0.000000
										CHANNELS 3 Zrotation Yrotation Xrotation
										End Site
										{
											OFFSET 0.000000 0.000000 0.000000
										}
									}
								}
								JOINT RThumb
								{
									OFFSET 0.000000 0.000000 0.000000
									CHANNELS 3 Zrotation Yrotation Xrotation
									End Site
									{
										OFFSET 0.000000 0.000000 0.000000
									}
								}
							}
						}
					}
				}
			}
		}
	}
}
MOTION
Frames: 4
Frame Time: 0.008333
1.854905 18.475124 9.675540 -9.341028 -5.603441 15.884763 5.047992 5.793593 2.899530 -20.043186 -50.958338 16.560422 -3.963308 -3.560850 -5.006466 -14.131956 47.319122 -41.038113 2.123000 9.117800 26.164400 0.105484 -4.766602 2.777012 14.808953 37.016472 -3.347610 3.569065 0.225252 0.871704 10.356407 -30.011805 -5.212229 -0.047600 -1.408000 3.872200 -3.054496 0.310800 -0.965367 13.406030 -1.353477 21.515484 -3.545094 -0.699266 -23.917557 0.493098 -0.472809 -32.855568 6.661454 -0.886987 31.043440 1.186200 1.087600 9.989700 -8.241599 -7.737344 0.072873 -66.266150 -43.479324 27.543433 12.725170 -11.964108 -2.661717 -2.340677 -3.652967 -35.545175 21.841563 20.358249 10.064000 -7.125000 0.000000 0.000000 -3.056500 53.602700 -0.647000 8.991199 10.627163 2.771825 92.110930 37.568403 94.897158 -35.671142 41.169884 -16.872874 -2.076759 1.639227 -42.581459 25.445636 -62.185221 -23.678600 7.125000 0.000000 0.000000 84.076300 65.390000 110.560200 
1.858275 18.470491 9.696813 -9.804280 -5.269608 15.476899 5.129731 5.878277 2.901369 -20.224992 -51.124094 17.505920 -3.963901 -3.587881 -5.074353 -14.560804 47.834350 -40.942970 1.996400 8.858600 25.354100 0.157015 -4.866096 2.865869 15.757392 36.949774 -2.527894 3.603280 0.277615 0.826977 10.326212 -29.986444 -5.627502 -0.059400 -1.572000 4.324300 -2.684626 0.332380 -0.802272 14.063269 -1.433294 21.714504 -4.109464 -0.838946 -24.147629 0.235522 -0.543874 -32.533436 7.015621 -1.003894 31.156832 1.241500 1.088800 10.013500 -8.218159 -7.556995 -0.262373 -66.129112 -40.476929 33.590226 15.203960 -15.336512 -3.534752 -1.625120 -4.128656 -43.746474 23.607871 20.871439 11.192700 -7.125000 0.000000 0.000000 -1.393200 54.748800 -0.333700 8.883287 10.482175 2.637777 89.583644 36.618381 94.606347 -39.879815 43.624042 -19.994890 -2.004808 1.496120 -44.017516 26.102639 -63.542571 -24.482800 7.125000 0.000000 0.000000 87.005700 65.640800 113.586900 
1.868595 18.461118 9.714399 -10.374985 -4.916381 15.353187 5.242173 5.905022 2.806673 -20.011541 -51.312016 17.957548 -3.950780 -3.565558 -5.062315 -15.144070 48.462748 -40.669188 1.826400 8.494700 24.226900 0.230559 -4.885931 2.876595 16.581195 36.597792 -2.232745 3.618696 0.258005 0.878952 10.209738 -29.789112 -5.671164 -0.051800 -1.468100 4.037800 -2.287777 0.392582 -0.486793 15.105368 -1.418440 21.161563 -4.844017 -1.015107 -24.210321 -0.213645 -0.669279 -32.269338 7.424930 -1.161333 31.480995 1.326200 1.079500 10.084300 -8.267460 -7.340668 -0.486555 -65.790923 -37.157588 38.446287 18.005419 -19.225803 -4.774836 -0.971208 -4.385947 -50.646983 25.669816 21.014591 12.304800 -7.125000 0.000000 0.000000 0.741200 55.503700 0.191100 8.806500 10.288713 2.538681 86.880565 35.277159 94.174038 -44.437638 45.878518 -23.527125 -1.939653 1.356277 -45.219840 26.974872 -64.920760 -25.508400 7.125000 0.000000 0.000000 90.019900 65.791300 116.739800 
1.873650 18.458064 9.737041 -10.339517 -4.789937 15.318869 5.235484 5.889231 2.739539 -20.227157 -51.496449 18.171521 -3.937331 -3.501354 -4.953998 -15.564698 48.929513 -40.493795 1.698300 8.207100 23.344800 0.207400 -4.908221 2.844491 16.677726 36.601562 -2.043982 3.624530 0.244745 0.920524 10.239250 -29.857660 -5.840928 -0.040500 -1.298500 3.570600 -2.148180 0.436587 -0.331923 14.998376 -1.289444 20.667872 -4.942141 -0.988393 -24.252108 -0.427734 -0.721628 -32.139353 7.630495 -1.260018 31.796945 1.364800 1.074200 10.148000 -8.221131 -7.071578 -0.650331 -65.320862 -33.809585 42.327147 21.083283 -23.374392 -6.426501 -0.420418 -4.490155 -56.303912 27.934106 20.965497 13.433300 -7.125000 0.000000 0.000000 3.197600 56.051500 0.867500 8.894848 10.063667 2.421135 84.060930 33.768189 93.812144 -49.252977 47.910504 -27.418313 -1.866791 1.216534 -46.515938 26.899678 -66.100004 -25.592700 7.125000 0.000000 0.000000 92.633600 66.040200 119.229800 
